<?xml version="1.0" encoding="utf-8"?>
<!-- Generator: Adobe Illustrator 19.0.0, SVG Export Plug-In . SVG Version: 6.00 Build 0)  -->
<svg version="1.1" xmlns="http://www.w3.org/2000/svg" xmlns:xlink="http://www.w3.org/1999/xlink" x="0px" y="0px"
	 viewBox="-778 501.5 361.5 79.5" style="enable-background:new -778 501.5 361.5 79.5;" xml:space="preserve">
<style type="text/css">
	.st0{fill:#FFFFFF;}
</style>
<g id="Calque_2">
</g>
<g id="Calque_1">
	<g id="Calque_1_1_">
		<g id="XMLID_1_">
			<g id="XMLID_4_">
				<path id="XMLID_5_" class="st0" d="M-728.8,547.3c0,1.5-0.3,2.9-0.8,4.2c-0.6,1.3-1.3,2.5-2.3,3.5s-2.1,1.9-3.4,2.5
					s-2.7,0.9-4.1,0.9h-19.7v-42.6h18.8c1.5,0,2.8,0.3,4,1c1.2,0.6,2.2,1.5,3.1,2.5c0.8,1,1.5,2.2,2,3.5s0.7,2.6,0.7,3.9
					c0,2.2-0.6,4.1-1.7,5.9c-1.1,1.8-2.6,3.1-4.5,4c1.2,0.4,2.3,0.9,3.3,1.6s1.8,1.6,2.5,2.5c0.7,1,1.2,2,1.6,3.2
					C-729,544.9-728.8,546.1-728.8,547.3z M-757.9,517v19.3h17.3c1.3,0,2.5-0.3,3.6-0.8c1.1-0.6,2-1.3,2.8-2.2
					c0.8-0.9,1.4-1.9,1.8-3.1c0.4-1.1,0.7-2.3,0.7-3.5c0-1.3-0.2-2.5-0.6-3.7c-0.4-1.2-1-2.2-1.7-3.1c-0.7-0.9-1.6-1.6-2.7-2.1
					c-1.1-0.5-2.2-0.8-3.5-0.8C-740.2,517-757.9,517-757.9,517z M-730,547.3c0-1.3-0.2-2.5-0.7-3.7c-0.5-1.2-1.1-2.2-1.9-3.1
					c-0.8-0.9-1.8-1.6-2.8-2.2c-1.1-0.6-2.3-0.8-3.6-0.8h-19v19.7h18.5c1.3,0,2.5-0.3,3.7-0.8c1.1-0.6,2.1-1.3,3-2.2
					c0.9-0.9,1.5-2,2-3.2C-730.2,549.8-730,548.6-730,547.3z"/>
				<path id="XMLID_9_" class="st0" d="M-707.8,558.4v-42.6h17.3c1.7,0,3.3,0.4,4.8,1.1c1.5,0.7,2.7,1.7,3.8,2.9
					c1.1,1.2,1.9,2.6,2.5,4.1c0.6,1.5,0.9,3.1,0.9,4.7c0,1.6-0.3,3.2-0.8,4.7s-1.3,2.9-2.2,4c-1,1.2-2.1,2.1-3.4,2.9
					c-1.3,0.7-2.8,1.2-4.4,1.3l10.8,16.7h-1.5l-10.8-16.6h-15.8v16.7h-1.2V558.4z M-706.6,540.4h16.6c1.6,0,3-0.3,4.3-1
					c1.3-0.7,2.4-1.6,3.3-2.7c0.9-1.1,1.6-2.3,2.1-3.8c0.5-1.4,0.7-2.8,0.7-4.3s-0.3-3-0.8-4.4c-0.6-1.4-1.3-2.6-2.3-3.7
					s-2.1-2-3.5-2.6c-1.3-0.7-2.7-1-4.2-1h-16.2V540.4z"/>
				<path id="XMLID_12_" class="st0" d="M-629.4,557.2v1.2h-28v-42.6h27.4v1.2h-26.2v19h23v1.2h-23v20H-629.4z"/>
				<path id="XMLID_14_" class="st0" d="M-594.6,515.8h1.1l24.6,55.5l-1.8-0.3l-12.8-29.1h-21.2l-13,29.5h-1.2L-594.6,515.8z
					 M-583.5,541.9l-10.5-24.4l-10.7,24.4H-583.5z"/>
				<path id="XMLID_17_" class="st0" d="M-531.1,517h-16.3v41.4h-1.2V517h-16.3v-1.2h33.8V517z"/>
				<path id="XMLID_19_" class="st0" d="M-480.1,515.8v42.6h-1.2v-21.2h-29.6v21.2h-1.2v-42.6h1.2V536h29.6v-20.2H-480.1z"/>
				<path id="XMLID_21_" class="st0" d="M-428.2,557.2v1.2h-28v-42.6h27.4v1.2H-455v19h23v1.2h-23v20H-428.2z"/>
			</g>
			<rect id="XMLID_3_" x="-761.4" y="571" class="st0" width="332.7" height="1.4"/>
		</g>
	</g>
</g>
</svg>
